<svg width="961" height="941" viewBox="0 0 961 941" fill="none" xmlns="http://www.w3.org/2000/svg">
<rect x="0.5" y="0.5" width="960" height="940" rx="470" fill="#25C5ED" stroke="black"/>
<rect x="421.588" y="2.91602" width="666.5" height="666.5" rx="50" transform="rotate(36.9639 421.588 2.91602)" fill="#DAC1EB" fill-opacity="0.76"/>
<rect x="264.105" y="47.2891" width="673.169" height="673.169" rx="50" transform="rotate(17 264.105 47.2891)" fill="#DAC1EB" fill-opacity="0.76"/>
<rect x="117.652" y="168.016" width="673.169" height="673.169" rx="50" transform="rotate(-6 117.652 168.016)" fill="#DAC1EB" fill-opacity="0.76"/>
<rect x="30.0127" y="336.369" width="673.169" height="673.169" rx="50" transform="rotate(-29 30.0127 336.369)" fill="#DAC1EB" fill-opacity="0.76"/>
<circle opacity="0.4" cx="480" cy="468" r="334" fill="#1143CD"/>
<path d="M471.781 285.691C586.43 285.691 643.754 320.262 643.754 389.402C643.754 417.527 633.402 440.965 612.699 459.715C591.02 479.246 561.527 489.793 524.223 491.355V492.527C544.535 497.41 560.258 507.664 571.391 523.289C577.25 531.492 583.695 544.578 590.727 562.547C597.758 580.32 603.324 594.48 607.426 605.027C611.527 615.379 615.629 624.754 619.73 633.152C628.91 652.098 637.016 661.57 644.047 661.57C646.977 661.57 649.516 660.301 651.664 657.762C653.812 655.027 655.961 652 658.109 648.68C664.164 640.281 669.633 636.082 674.516 636.082C675.102 636.082 676.469 636.668 678.617 637.84C680.766 638.816 681.84 640.867 681.84 643.992C681.84 647.117 681.156 650.438 679.789 653.953C668.656 671.727 660.258 683.348 654.594 688.816C642.484 700.73 629.008 706.688 614.164 706.688C599.516 706.688 587.797 704.344 579.008 699.656C570.414 694.969 563.188 688.719 557.328 680.906C551.469 672.898 546.684 663.719 542.973 653.367C539.457 643.016 536.234 632.176 533.305 620.848C530.57 609.52 527.836 598.094 525.102 586.57C522.367 575.047 518.949 564.109 514.848 553.758C505.473 530.516 492.484 514.793 475.883 506.59C471.781 504.441 466.801 502.195 460.941 499.852V475.828C516.215 475.828 549.711 460.301 561.43 429.246C565.336 418.504 567.289 405.809 567.289 391.16C567.289 364.793 559.574 344.285 544.145 329.637C528.715 314.988 505.082 307.664 473.246 307.664C467.582 307.664 463.48 307.957 460.941 308.543V285.691H471.781ZM436.625 632.273C436.625 645.164 437.016 654.246 437.797 659.52C438.578 664.793 440.336 668.602 443.07 670.945C446 673.289 449.418 675.145 453.324 676.512C457.23 677.684 461.332 678.758 465.629 679.734C469.926 680.711 473.93 682.371 477.641 684.715V702H322.367V684.715C325.297 682.371 328.812 680.711 332.914 679.734C337.016 678.758 341.117 677.586 345.219 676.219C354.984 673.289 360.453 667.82 361.625 659.812C362.797 651.609 363.383 642.234 363.383 631.688V355.711C363.383 334.031 360.844 321.141 355.766 317.039C351.664 313.719 345.902 311.18 338.48 309.422C331.254 307.469 325.883 305.32 322.367 302.977V285.691H436.625V632.273Z" fill="white"/>
</svg>
